<svg role="img" viewBox="0 0 24 24" xmlns="http://www.w3.org/2000/svg" id="Wykop--Streamline-Simple-Icons" height="24" width="24">
  <desc>
    Wykop Streamline Icon: https://streamlinehq.com
  </desc>
  <title>Wykop</title>
  <path d="m7.707 17.486 1.406 -0.68 -1.406 0.68 0.69 1.384 1.407 -0.68 -0.69 -1.384Zm-0.69 -1.384 1.407 -0.68 -1.407 0.68 0.691 1.384 1.406 -0.68 -0.69 -1.384Zm-0.691 -1.384 1.406 -0.677 -1.406 0.677 0.69 1.385 1.407 -0.681 -0.691 -1.381Zm-0.69 -1.384 1.406 -0.678 -1.406 0.678 0.69 1.384 1.407 -0.677 -0.69 -1.385Zm-0.69 -1.381 1.406 -0.68 -1.406 0.68 0.69 1.383 1.406 -0.679 -0.69 -1.383Zm-0.692 -1.384 1.406 -0.68 -1.406 0.68 0.69 1.384 1.407 -0.68 -0.69 -1.384Zm6.981 3.494 1.407 -0.68 -1.407 0.68 0.69 1.384 1.407 -0.68 -0.69 -1.384zm-0.69 -1.382 1.406 -0.68 -1.406 0.68 0.69 1.384 1.407 -0.68 -0.691 -1.383zm-0.691 -1.383 1.406 -0.68 -1.406 0.68 0.69 1.383 1.407 -0.68 -0.69 -1.384Zm-0.69 -1.382 1.406 -0.68 -1.407 0.68 0.691 1.383 1.406 -0.68 -0.69 -1.383Zm-0.691 -1.384 1.406 -0.68 -1.406 0.68 0.69 1.384 1.407 -0.68 -0.69 -1.383Zm6.98 3.495 1.406 -0.681 -1.406 0.68 0.69 1.384 1.407 -0.68 -0.69 -1.384zm-0.69 -1.385 1.406 -0.68 -1.407 0.68 0.691 1.385 1.406 -0.681 -0.69 -1.385zm-0.691 -1.382 1.406 -0.68 -1.406 0.68 0.69 1.383 1.407 -0.68 -0.69 -1.383Zm-0.69 -1.385 1.406 -0.68 -1.407 0.68 0.69 1.385 1.407 -0.68 -0.69 -1.384Zm-0.691 -1.382 1.406 -0.68 -1.406 0.68 0.69 1.384 1.407 -0.68 -0.691 -1.385ZM5.66 9.89l1.405 -0.68 -1.406 0.68 0.69 1.385 1.407 -0.68 -0.69 -1.384Zm0.69 1.385 1.406 -0.68 -1.406 0.68 0.69 1.383 1.407 -0.678 -0.69 -1.385zm0.69 1.382 1.407 -0.678 -1.407 0.678 0.691 1.385 1.406 -0.681 -0.69 -1.383zm0.691 1.385 1.406 -0.681 -1.406 0.68 0.69 1.383 1.407 -0.679 -0.69 -1.384Zm0.69 1.38 1.407 -0.678 -1.406 0.679 0.69 1.384 1.406 -0.68 -0.69 -1.384Zm0.691 1.385 1.406 -0.68 -1.406 0.68 0.69 1.384 1.407 -0.681 -0.69 -1.383zm1.406 -0.68 1.407 -0.679 -1.407 0.68 0.691 1.383 1.406 -0.678 -0.69 -1.385zm1.407 -0.679 1.406 -0.68 -1.406 0.68 0.69 1.385 1.407 -0.681 -0.69 -1.385zM9.879 7.853l1.406 -0.681 -1.406 0.68 0.69 1.384 1.407 -0.68 -0.69 -1.384Zm0.69 1.382 1.407 -0.68 -1.406 0.68 0.69 1.383 1.407 -0.68 -0.691 -1.383Zm0.69 1.383 1.407 -0.68 -1.407 0.68 0.69 1.384 1.407 -0.68 -0.69 -1.383zm0.692 1.384 1.406 -0.681 -1.406 0.68 0.69 1.384 1.407 -0.679 -0.69 -1.384zm0.69 1.382 1.406 -0.679 -1.407 0.679 0.691 1.383 1.406 -0.678 -0.69 -1.384zm0.69 1.383 1.406 -0.678 -1.406 0.678 0.69 1.385 1.407 -0.679 -0.69 -1.384zm1.406 -0.678 1.407 -0.679 -1.407 0.679 0.69 1.384 1.407 -0.68 -0.69 -1.384zm1.407 -0.679 1.406 -0.68 -1.406 0.68 0.69 1.384 1.407 -0.68 -0.691 -1.384zm1.405 -0.68 1.406 -0.68 -1.406 0.68 0.69 1.384 1.407 -0.681 -0.69 -1.383zm-0.69 -1.384 1.407 -0.68 -1.407 0.68 0.69 1.384 1.407 -0.68 -0.69 -1.384zm-0.69 -1.385 1.406 -0.677 -1.406 0.677 0.69 1.385 1.407 -0.68 -0.691 -1.383Zm-0.69 -1.38 1.405 -0.68 -1.406 0.68 0.69 1.383 1.407 -0.679 -0.69 -1.383Zm-0.691 -1.385 1.406 -0.678 -1.406 0.678 0.69 1.384 1.406 -0.678 -0.69 -1.384Zm-0.691 -1.384 1.406 -0.677 -1.406 0.677 0.69 1.385 1.407 -0.678 -0.69 -1.384Zm7.25 5.263c0 -1.166 -0.044 -2.17 -0.132 -3.017 -0.089 -0.847 -0.255 -1.51 -0.498 -1.988 -0.31 -0.937 -1.005 -1.532 -2.088 -1.785 -0.862 -0.23 -2.529 -0.342 -5.003 -0.342h-3.182c-2.474 0 -4.152 0.114 -5.036 0.342 -1.06 0.252 -1.778 0.847 -2.154 1.785 -0.42 1.006 -0.629 2.673 -0.629 5.005v1.887c0 2.333 0.21 4 0.63 5.006 0.397 0.916 1.126 1.498 2.186 1.75 0.862 0.23 2.529 0.342 5.003 0.342h3.182c2.452 0 4.108 -0.114 4.97 -0.342 1.083 -0.25 1.79 -0.834 2.121 -1.75 0.243 -0.48 0.41 -1.143 0.498 -1.987a29.54 29.54 0 0 0 0.133 -3.02zm2.456 5.628c-0.134 1.074 -0.354 1.967 -0.663 2.676a5.589 5.589 0 0 1 -1.326 1.765 5.16 5.16 0 0 1 -1.955 1.081v0.034c-0.642 0.205 -1.471 0.367 -2.487 0.48 -1.017 0.115 -2.254 0.172 -3.713 0.172h-3.215c-3.36 0 -5.692 -0.321 -6.995 -0.96 -1.459 -0.664 -2.443 -1.888 -2.952 -3.672 -0.176 -0.664 -0.303 -1.59 -0.381 -2.78C0.038 14.31 0 12.835 0 11.074 0 9.634 0.061 8.375 0.182 7.3 0.303 6.225 0.52 5.344 0.828 4.658a5.715 5.715 0 0 1 1.31 -1.766c0.542 -0.492 1.21 -0.876 2.005 -1.15h0.033c1.238 -0.434 3.327 -0.653 6.266 -0.653h3.215c3.227 0 5.547 0.333 6.962 0.996 0.707 0.319 1.31 0.79 1.807 1.407 0.497 0.616 0.867 1.383 1.11 2.297 0.133 0.64 0.244 1.556 0.332 2.744 0.088 1.19 0.132 2.665 0.132 4.427 0.001 1.421 -0.065 2.666 -0.197 3.743" fill="#000000" stroke-width="1"/>
</svg>